M48
METRIC,LZ,000.000
;FILE_FORMAT=3:3
;TYPE=PLATED
;Layer: PTH_Through
;EasyEDA v6.5.44, 2024-07-21 16:24:13
;9c1bdb26fcb24e138229f6b6421db46a,10
;Gerber Generator version 0.2
;Holesize 1 = 0.900 mm
T01C0.900
;Holesize 2 = 0.901 mm
T02C0.901
;Holesize 3 = 1.200 mm
T03C1.200
%
G05
G90
T01
X032766Y059055
X040386Y059055
X019685Y042418
X027305Y042418
X038862Y036195
X046482Y036195
X017272Y046228
X009652Y046228
T02
X009906Y039878
X009906Y037338
X013970Y042418
X013970Y039878
X029083Y047371
X031623Y047371
X034163Y047371
X036703Y047371
X029083Y054991
X031623Y054991
X034163Y054991
X036703Y054991
T03
X021769Y052281G85X021769Y054781
X015569Y054781G85X015569Y052281
X017519Y048831G85X020019Y048831
M30
