G04 Layer: TopSilkscreenLayer*
G04 EasyEDA v6.5.44, 2024-07-21 16:24:13*
G04 9c1bdb26fcb24e138229f6b6421db46a,10*
G04 Gerber Generator version 0.2*
G04 Scale: 100 percent, Rotated: No, Reflected: No *
G04 Dimensions in millimeters *
G04 leading zeros omitted , absolute positions ,4 integer and 5 decimal *
%FSLAX45Y45*%
%MOMM*%

%ADD10C,0.1524*%
%ADD11C,0.2540*%
%ADD12C,0.2000*%
%ADD13C,0.2500*%
%ADD14C,0.6000*%
%ADD15C,0.0189*%

%LPD*%
D10*
X3278377Y4013707D02*
G01*
X3273043Y4024121D01*
X3262629Y4034536D01*
X3252470Y4039615D01*
X3231641Y4039615D01*
X3221227Y4034536D01*
X3210813Y4024121D01*
X3205479Y4013707D01*
X3200400Y3997960D01*
X3200400Y3972052D01*
X3205479Y3956557D01*
X3210813Y3946144D01*
X3221227Y3935729D01*
X3231641Y3930650D01*
X3252470Y3930650D01*
X3262629Y3935729D01*
X3273043Y3946144D01*
X3278377Y3956557D01*
X3317747Y4013707D02*
G01*
X3317747Y4018787D01*
X3323081Y4029202D01*
X3328161Y4034536D01*
X3338575Y4039615D01*
X3359404Y4039615D01*
X3369818Y4034536D01*
X3374897Y4029202D01*
X3380231Y4018787D01*
X3380231Y4008373D01*
X3374897Y3997960D01*
X3364484Y3982465D01*
X3312668Y3930650D01*
X3385311Y3930650D01*
X1495145Y5976429D02*
G01*
X1495145Y5867463D01*
X1495145Y5976429D02*
G01*
X1531467Y5976429D01*
X1547215Y5971349D01*
X1557375Y5960935D01*
X1562709Y5950521D01*
X1567789Y5934773D01*
X1567789Y5908865D01*
X1562709Y5893371D01*
X1557375Y5882957D01*
X1547215Y5872543D01*
X1531467Y5867463D01*
X1495145Y5867463D01*
X1680057Y5950521D02*
G01*
X1674977Y5960935D01*
X1664563Y5971349D01*
X1654149Y5976429D01*
X1633321Y5976429D01*
X1622907Y5971349D01*
X1612493Y5960935D01*
X1607413Y5950521D01*
X1602079Y5934773D01*
X1602079Y5908865D01*
X1607413Y5893371D01*
X1612493Y5882957D01*
X1622907Y5872543D01*
X1633321Y5867463D01*
X1654149Y5867463D01*
X1664563Y5872543D01*
X1674977Y5882957D01*
X1680057Y5893371D01*
X1714347Y5955601D02*
G01*
X1724761Y5960935D01*
X1740255Y5976429D01*
X1740255Y5867463D01*
X965200Y4179315D02*
G01*
X965200Y4070350D01*
X965200Y4070350D02*
G01*
X1027429Y4070350D01*
X1061720Y4179315D02*
G01*
X1061720Y4070350D01*
X1061720Y4179315D02*
G01*
X1129284Y4179315D01*
X1061720Y4127500D02*
G01*
X1103376Y4127500D01*
X1061720Y4070350D02*
G01*
X1129284Y4070350D01*
X1163573Y4179315D02*
G01*
X1163573Y4070350D01*
X1163573Y4179315D02*
G01*
X1200150Y4179315D01*
X1215644Y4174236D01*
X1226057Y4163821D01*
X1231137Y4153407D01*
X1236471Y4137660D01*
X1236471Y4111752D01*
X1231137Y4096257D01*
X1226057Y4085844D01*
X1215644Y4075429D01*
X1200150Y4070350D01*
X1163573Y4070350D01*
X1270762Y4158487D02*
G01*
X1281176Y4163821D01*
X1296670Y4179315D01*
X1296670Y4070350D01*
X1371600Y4433315D02*
G01*
X1371600Y4324350D01*
X1371600Y4324350D02*
G01*
X1433829Y4324350D01*
X1468120Y4433315D02*
G01*
X1468120Y4324350D01*
X1468120Y4433315D02*
G01*
X1535684Y4433315D01*
X1468120Y4381500D02*
G01*
X1509776Y4381500D01*
X1468120Y4324350D02*
G01*
X1535684Y4324350D01*
X1569973Y4433315D02*
G01*
X1569973Y4324350D01*
X1569973Y4433315D02*
G01*
X1606550Y4433315D01*
X1622044Y4428236D01*
X1632457Y4417821D01*
X1637537Y4407407D01*
X1642871Y4391660D01*
X1642871Y4365752D01*
X1637537Y4350257D01*
X1632457Y4339844D01*
X1622044Y4329429D01*
X1606550Y4324350D01*
X1569973Y4324350D01*
X1687576Y4433315D02*
G01*
X1744726Y4433315D01*
X1713484Y4391660D01*
X1728978Y4391660D01*
X1739392Y4386579D01*
X1744726Y4381500D01*
X1749805Y4365752D01*
X1749805Y4355337D01*
X1744726Y4339844D01*
X1734312Y4329429D01*
X1718563Y4324350D01*
X1703070Y4324350D01*
X1687576Y4329429D01*
X1682242Y4334510D01*
X1677162Y4344923D01*
X3657600Y6147815D02*
G01*
X3657600Y6038850D01*
X3657600Y6147815D02*
G01*
X3704336Y6147815D01*
X3719829Y6142736D01*
X3725163Y6137402D01*
X3730243Y6126987D01*
X3730243Y6116573D01*
X3725163Y6106160D01*
X3719829Y6101079D01*
X3704336Y6096000D01*
X3657600Y6096000D01*
X3693922Y6096000D02*
G01*
X3730243Y6038850D01*
X3764534Y6126987D02*
G01*
X3774947Y6132321D01*
X3790695Y6147815D01*
X3790695Y6038850D01*
X2349500Y4484115D02*
G01*
X2349500Y4375150D01*
X2349500Y4484115D02*
G01*
X2396236Y4484115D01*
X2411729Y4479036D01*
X2417063Y4473702D01*
X2422143Y4463287D01*
X2422143Y4452873D01*
X2417063Y4442460D01*
X2411729Y4437379D01*
X2396236Y4432300D01*
X2349500Y4432300D01*
X2385822Y4432300D02*
G01*
X2422143Y4375150D01*
X2461768Y4458207D02*
G01*
X2461768Y4463287D01*
X2466847Y4473702D01*
X2472181Y4479036D01*
X2482595Y4484115D01*
X2503170Y4484115D01*
X2513584Y4479036D01*
X2518918Y4473702D01*
X2523997Y4463287D01*
X2523997Y4452873D01*
X2518918Y4442460D01*
X2508504Y4426965D01*
X2456434Y4375150D01*
X2529331Y4375150D01*
X4267200Y3861815D02*
G01*
X4267200Y3752850D01*
X4267200Y3861815D02*
G01*
X4313936Y3861815D01*
X4329429Y3856736D01*
X4334763Y3851402D01*
X4339843Y3840987D01*
X4339843Y3830573D01*
X4334763Y3820160D01*
X4329429Y3815079D01*
X4313936Y3810000D01*
X4267200Y3810000D01*
X4303522Y3810000D02*
G01*
X4339843Y3752850D01*
X4384547Y3861815D02*
G01*
X4441697Y3861815D01*
X4410709Y3820160D01*
X4426204Y3820160D01*
X4436618Y3815079D01*
X4441697Y3810000D01*
X4447031Y3794252D01*
X4447031Y3783837D01*
X4441697Y3768344D01*
X4431284Y3757929D01*
X4415790Y3752850D01*
X4400295Y3752850D01*
X4384547Y3757929D01*
X4379468Y3763010D01*
X4374134Y3773423D01*
X1346200Y4380484D02*
G01*
X1346200Y4489450D01*
X1346200Y4380484D02*
G01*
X1299463Y4380484D01*
X1283970Y4385563D01*
X1278636Y4390897D01*
X1273555Y4401312D01*
X1273555Y4411726D01*
X1278636Y4422139D01*
X1283970Y4427220D01*
X1299463Y4432300D01*
X1346200Y4432300D01*
X1309878Y4432300D02*
G01*
X1273555Y4489450D01*
X1176781Y4380484D02*
G01*
X1228852Y4380484D01*
X1233931Y4427220D01*
X1228852Y4422139D01*
X1213104Y4416805D01*
X1197610Y4416805D01*
X1182115Y4422139D01*
X1171702Y4432300D01*
X1166368Y4448047D01*
X1166368Y4458462D01*
X1171702Y4473955D01*
X1182115Y4484370D01*
X1197610Y4489450D01*
X1213104Y4489450D01*
X1228852Y4484370D01*
X1233931Y4479289D01*
X1239265Y4468876D01*
X3251200Y5741415D02*
G01*
X3251200Y5663437D01*
X3256279Y5647944D01*
X3266693Y5637529D01*
X3282441Y5632450D01*
X3292856Y5632450D01*
X3308350Y5637529D01*
X3318763Y5647944D01*
X3323843Y5663437D01*
X3323843Y5741415D01*
X3363468Y5715507D02*
G01*
X3363468Y5720587D01*
X3368547Y5731002D01*
X3373881Y5736336D01*
X3384295Y5741415D01*
X3404870Y5741415D01*
X3415284Y5736336D01*
X3420618Y5731002D01*
X3425697Y5720587D01*
X3425697Y5710173D01*
X3420618Y5699760D01*
X3410204Y5684265D01*
X3358134Y5632450D01*
X3431031Y5632450D01*
G36*
X2997200Y3644900D02*
G01*
X3002280Y3639820D01*
X3002280Y3601720D01*
X3073400Y3530600D01*
X3086100Y3530600D01*
X3086100Y3644900D01*
G37*
G36*
X3070860Y3858260D02*
G01*
X2999740Y3787140D01*
X2999740Y3749040D01*
X2994660Y3743960D01*
X3083560Y3743960D01*
X3083560Y3858260D01*
G37*
D11*
X3421799Y3632200D02*
G01*
X3421799Y3561499D01*
X3327400Y3467100D01*
X2971800Y3467100D01*
X2971800Y3619500D01*
X2971800Y3759200D02*
G01*
X2971800Y3917099D01*
X3334600Y3917099D01*
X3421799Y3829900D01*
X3421799Y3759200D01*
X786909Y4903124D02*
G01*
X786907Y5803125D01*
X786907Y5803125D02*
G01*
X2226945Y5803125D01*
X1156944Y4903127D02*
G01*
X1156944Y5803125D01*
X1164945Y5033124D02*
G01*
X2226945Y5033124D01*
X1164945Y5673102D02*
G01*
X2226945Y5673102D01*
X2226945Y5803125D02*
G01*
X2226945Y5595564D01*
X2226945Y5110662D02*
G01*
X2226945Y4903124D01*
X786909Y4903124D02*
G01*
X1625439Y4903124D01*
X2128375Y4903124D02*
G01*
X2226945Y4903124D01*
X863600Y3692652D02*
G01*
X1118387Y3692118D01*
X1270000Y3946652D02*
G01*
X1524787Y3946118D01*
X3403600Y5905500D02*
G01*
X3378200Y5905500D01*
X3911600Y5905500D02*
G01*
X3937000Y5905500D01*
X3403600Y5905500D02*
G01*
X3403600Y5981700D01*
X3403600Y5829300D02*
G01*
X3403600Y5905500D01*
X3911600Y5829300D02*
G01*
X3403600Y5829300D01*
X3911600Y5905500D02*
G01*
X3911600Y5829300D01*
X3911600Y5981700D02*
G01*
X3911600Y5905500D01*
X3403600Y5981700D02*
G01*
X3911600Y5981700D01*
X2095500Y4241800D02*
G01*
X2070100Y4241800D01*
X2603500Y4241800D02*
G01*
X2628900Y4241800D01*
X2095500Y4241800D02*
G01*
X2095500Y4318000D01*
X2095500Y4165600D02*
G01*
X2095500Y4241800D01*
X2603500Y4165600D02*
G01*
X2095500Y4165600D01*
X2603500Y4241800D02*
G01*
X2603500Y4165600D01*
X2603500Y4318000D02*
G01*
X2603500Y4241800D01*
X2095500Y4318000D02*
G01*
X2603500Y4318000D01*
X4013200Y3619500D02*
G01*
X3987800Y3619500D01*
X4521200Y3619500D02*
G01*
X4546600Y3619500D01*
X4013200Y3619500D02*
G01*
X4013200Y3695700D01*
X4013200Y3543300D02*
G01*
X4013200Y3619500D01*
X4521200Y3543300D02*
G01*
X4013200Y3543300D01*
X4521200Y3619500D02*
G01*
X4521200Y3543300D01*
X4521200Y3695700D02*
G01*
X4521200Y3619500D01*
X4013200Y3695700D02*
G01*
X4521200Y3695700D01*
X1600200Y4622800D02*
G01*
X1625600Y4622800D01*
X1092200Y4622800D02*
G01*
X1066800Y4622800D01*
X1600200Y4622800D02*
G01*
X1600200Y4546600D01*
X1600200Y4699000D02*
G01*
X1600200Y4622800D01*
X1092200Y4699000D02*
G01*
X1600200Y4699000D01*
X1092200Y4622800D02*
G01*
X1092200Y4699000D01*
X1092200Y4546600D02*
G01*
X1092200Y4622800D01*
X1600200Y4546600D02*
G01*
X1092200Y4546600D01*
D12*
X2795300Y5182100D02*
G01*
X2795270Y5181600D01*
X2795270Y5383021D01*
X3785361Y5383021D01*
X3785361Y4853178D01*
X2795270Y4853178D01*
X2795270Y5054600D01*
X2795300Y5054099D01*
D11*
G75*
G01*
X3373120Y3767328D02*
G03*
X3001264Y3764534I-185374J-75076D01*
G75*
G01*
X3002280Y3624072D02*
G03*
X3374136Y3626866I185374J75076D01*
G75*
G01*
X1117143Y3692652D02*
G03*
X863651Y3692652I-126746J154710D01*
G75*
G01*
X1523543Y3946652D02*
G03*
X1270051Y3946652I-126746J154710D01*
D12*
G75*
G01*
X2795300Y5054100D02*
G03*
X2795300Y5181100I0J63500D01*
D13*
G75*
G01*
X2765806Y4737100D02*
G03*
X2765806Y4737354I12499J127D01*
D14*
G75*
G01*
X2844292Y4953000D02*
G03*
X2844292Y4953508I29999J254D01*
M02*
