G04 Layer: BottomLayer*
G04 EasyEDA v6.5.44, 2024-07-21 16:24:13*
G04 9c1bdb26fcb24e138229f6b6421db46a,10*
G04 Gerber Generator version 0.2*
G04 Scale: 100 percent, Rotated: No, Reflected: No *
G04 Dimensions in millimeters *
G04 leading zeros omitted , absolute positions ,4 integer and 5 decimal *
%FSLAX45Y45*%
%MOMM*%

%ADD10C,0.2540*%
%ADD11O,1.9999959999999999X4.5999908*%
%ADD12O,4.5999908X1.9999959999999999*%
%ADD13C,1.4000*%
%ADD14C,1.8796*%
%ADD15R,1.5000X1.5000*%
%ADD16C,1.5000*%

%LPD*%
D10*
X3416302Y4737100D02*
G01*
X2921002Y4241800D01*
X2730502Y4241800D01*
X4648202Y3619500D02*
G01*
X4038602Y4229100D01*
X4038602Y5905500D01*
X3670302Y4737100D02*
G01*
X3543302Y4864100D01*
X3543302Y5531637D01*
X3242083Y5832881D01*
X2908302Y5499100D02*
G01*
X3242083Y5832881D01*
X3242083Y5832881D02*
G01*
X3276602Y5867400D01*
X3276602Y5905500D01*
X1397002Y3987800D02*
G01*
X1289941Y4094861D01*
X1289941Y5086146D01*
X1556920Y5353126D01*
X2805330Y4737100D02*
G01*
X2189330Y5353100D01*
X2176884Y5353100D01*
X2908302Y4737100D02*
G01*
X2805330Y4737100D01*
X3416302Y5499100D02*
G01*
X3416302Y4857572D01*
X3162302Y4737100D02*
G01*
X3282774Y4857572D01*
X3416302Y4857572D01*
X3416302Y4857572D02*
G01*
X3444572Y4857572D01*
X3543302Y4758842D01*
X3543302Y3962400D01*
X3886202Y3619500D01*
D11*
G01*
X2176881Y5353088D03*
G01*
X1556918Y5353113D03*
D12*
G01*
X1876907Y4883086D03*
D13*
G01*
X990600Y3987800D03*
G01*
X990600Y3733800D03*
G01*
X1397000Y4241800D03*
G01*
X1397000Y3987800D03*
D14*
G01*
X3276600Y5905500D03*
G01*
X4038600Y5905500D03*
G01*
X1968500Y4241800D03*
G01*
X2730500Y4241800D03*
G01*
X3886200Y3619500D03*
G01*
X4648200Y3619500D03*
G01*
X1727200Y4622800D03*
G01*
X965200Y4622800D03*
D15*
G01*
X2908300Y4737100D03*
D16*
G01*
X3162300Y4737100D03*
G01*
X3416300Y4737100D03*
G01*
X3670300Y4737100D03*
G01*
X2908300Y5499100D03*
G01*
X3162300Y5499100D03*
G01*
X3416300Y5499100D03*
G01*
X3670300Y5499100D03*
M02*
