G04 Layer: TopPasteMaskLayer*
G04 EasyEDA v6.5.44, 2024-07-18 17:56:00*
G04 97cd5decdfd44bc3b4dabd43e649edab,9c1bdb26fcb24e138229f6b6421db46a,10*
G04 Gerber Generator version 0.2*
G04 Scale: 100 percent, Rotated: No, Reflected: No *
G04 Dimensions in millimeters *
G04 leading zeros omitted , absolute positions ,4 integer and 5 decimal *
%FSLAX45Y45*%
%MOMM*%

%ADD10R,1.0000X0.8999*%

%LPD*%
G36*
X2639720Y4029506D02*
G01*
X2634691Y4024477D01*
X2634691Y3944518D01*
X2639720Y3939489D01*
X2719679Y3939489D01*
X2724708Y3944518D01*
X2724708Y4024477D01*
X2719679Y4029506D01*
X2696921Y4029506D01*
X2696921Y3992473D01*
X2663901Y3992473D01*
X2663901Y4029506D01*
G37*
G36*
X2639720Y4188510D02*
G01*
X2634691Y4183481D01*
X2634691Y4103522D01*
X2639720Y4098493D01*
X2662478Y4098493D01*
X2662478Y4135526D01*
X2695498Y4135526D01*
X2695498Y4098493D01*
X2719679Y4098493D01*
X2724708Y4103522D01*
X2724708Y4183481D01*
X2719679Y4188510D01*
G37*
G36*
X3046120Y4016806D02*
G01*
X3041091Y4011777D01*
X3041091Y3931818D01*
X3046120Y3926789D01*
X3126079Y3926789D01*
X3131108Y3931818D01*
X3131108Y4011777D01*
X3126079Y4016806D01*
X3103321Y4016806D01*
X3103321Y3979773D01*
X3070301Y3979773D01*
X3070301Y4016806D01*
G37*
G36*
X3046120Y4175810D02*
G01*
X3041091Y4170781D01*
X3041091Y4090822D01*
X3046120Y4085793D01*
X3068878Y4085793D01*
X3068878Y4122826D01*
X3101898Y4122826D01*
X3101898Y4085793D01*
X3126079Y4085793D01*
X3131108Y4090822D01*
X3131108Y4170781D01*
X3126079Y4175810D01*
G37*
G36*
X3376320Y4029506D02*
G01*
X3371291Y4024477D01*
X3371291Y3944518D01*
X3376320Y3939489D01*
X3456279Y3939489D01*
X3461308Y3944518D01*
X3461308Y4024477D01*
X3456279Y4029506D01*
X3433521Y4029506D01*
X3433521Y3992473D01*
X3400501Y3992473D01*
X3400501Y4029506D01*
G37*
G36*
X3376320Y4188510D02*
G01*
X3371291Y4183481D01*
X3371291Y4103522D01*
X3376320Y4098493D01*
X3399078Y4098493D01*
X3399078Y4135526D01*
X3432098Y4135526D01*
X3432098Y4098493D01*
X3456279Y4098493D01*
X3461308Y4103522D01*
X3461308Y4183481D01*
X3456279Y4188510D01*
G37*
D10*
G01*
X2667000Y4580796D03*
G01*
X2667000Y4410793D03*
G01*
X3073400Y4580796D03*
G01*
X3073400Y4410793D03*
G01*
X3403600Y4580796D03*
G01*
X3403600Y4410793D03*
M02*
