G04 Layer: TopLayer*
G04 EasyEDA v6.5.44, 2024-07-18 17:56:00*
G04 97cd5decdfd44bc3b4dabd43e649edab,9c1bdb26fcb24e138229f6b6421db46a,10*
G04 Gerber Generator version 0.2*
G04 Scale: 100 percent, Rotated: No, Reflected: No *
G04 Dimensions in millimeters *
G04 leading zeros omitted , absolute positions ,4 integer and 5 decimal *
%FSLAX45Y45*%
%MOMM*%

%AMMACRO1*21,1,$1,$2,0,0,$3*%
%ADD10C,0.2540*%
%ADD11R,1.0000X0.8999*%
%ADD12MACRO1,0.864X0.8065X0.0000*%
%ADD13R,0.8640X0.8065*%
%ADD14O,1.9999959999999999X4.5999908*%
%ADD15O,4.5999908X1.9999959999999999*%

%LPD*%
D10*
X3416302Y4207611D02*
G01*
X3403602Y4220311D01*
X3403602Y4410786D01*
X3416302Y4139336D02*
G01*
X3416302Y4207611D01*
X3086102Y4194911D02*
G01*
X3073402Y4207611D01*
X3073402Y4410786D01*
X3086102Y4126636D02*
G01*
X3086102Y4194911D01*
X2679702Y4207611D02*
G01*
X2667002Y4220311D01*
X2667002Y4410786D01*
X2679702Y4139336D02*
G01*
X2679702Y4207611D01*
X3403602Y4580788D02*
G01*
X3073402Y4580788D01*
X3073402Y4580788D02*
G01*
X2667002Y4580788D01*
X2667002Y4580788D02*
G01*
X1838683Y4580788D01*
X1556920Y4299026D01*
X3416302Y3988663D02*
G01*
X3169973Y3988663D01*
X3157273Y3975963D01*
X3121687Y3975963D02*
G01*
X3157273Y3975963D01*
X3121687Y3975963D02*
G01*
X3086102Y3975963D01*
X3086102Y3975963D02*
G01*
X2763573Y3975963D01*
X2750873Y3988663D01*
X2715287Y3988663D02*
G01*
X2750873Y3988663D01*
X2715287Y3988663D02*
G01*
X2679702Y3988663D01*
X2679702Y3988663D02*
G01*
X2487221Y3988663D01*
X2176884Y4299000D01*
D11*
G01*
X2667000Y4580796D03*
G01*
X2667000Y4410793D03*
G01*
X3073400Y4580796D03*
G01*
X3073400Y4410793D03*
G01*
X3403600Y4580796D03*
G01*
X3403600Y4410793D03*
D12*
G01*
X2679700Y3988675D03*
D13*
G01*
X2679700Y4139336D03*
D12*
G01*
X3086100Y3975975D03*
D13*
G01*
X3086100Y4126636D03*
D12*
G01*
X3416300Y3988675D03*
D13*
G01*
X3416300Y4139336D03*
D14*
G01*
X2176881Y4298988D03*
G01*
X1556918Y4299013D03*
D15*
G01*
X1876907Y3828986D03*
M02*
